<svg width="233" height="60" viewBox="0 0 233 60" fill="none" xmlns="http://www.w3.org/2000/svg">
<rect width="233" height="59.2792" fill="#159CDB"/>
<path d="M66.7486 26.3274V28.0464H71.0957V31.3463H66.7486V33.3223H71.6885V36.8198H62.3619V22.8299H71.6885V26.3274H66.7486ZM79.1708 22.8299C80.633 22.8299 81.9108 23.1263 83.0042 23.7191C84.1107 24.3119 84.9604 25.1352 85.5532 26.189C86.146 27.2429 86.4424 28.4416 86.4424 29.7853C86.4424 31.1158 86.146 32.3145 85.5532 33.3816C84.9604 34.4486 84.1107 35.2917 83.0042 35.9108C81.9108 36.5168 80.633 36.8198 79.1708 36.8198H73.3417V22.8299H79.1708ZM78.7756 32.9073C79.7636 32.9073 80.5474 32.6373 81.127 32.0972C81.7066 31.5571 81.9964 30.7865 81.9964 29.7853C81.9964 28.7841 81.7066 28.0135 81.127 27.4734C80.5474 26.9333 79.7636 26.6633 78.7756 26.6633H77.7283V32.9073H78.7756ZM92.3142 22.8299V30.714C92.3142 31.3595 92.4525 31.8732 92.7292 32.2553C93.019 32.6241 93.4801 32.8085 94.1124 32.8085C94.7447 32.8085 95.2123 32.6241 95.5153 32.2553C95.8183 31.8732 95.9698 31.3595 95.9698 30.714V22.8299H100.337V30.714C100.337 32.0445 100.06 33.184 99.5068 34.1324C98.9535 35.0677 98.196 35.7725 97.2344 36.2467C96.2728 36.721 95.1991 36.9581 94.0136 36.9581C92.828 36.9581 91.7741 36.721 90.852 36.2467C89.9431 35.7725 89.2317 35.0677 88.718 34.1324C88.2042 33.1971 87.9473 32.0577 87.9473 30.714V22.8299H92.3142Z" fill="#F5F5DC"/>
<path d="M113.67 27.6315C113.67 28.5141 113.465 29.3177 113.057 30.0422C112.649 30.7535 112.043 31.32 111.239 31.7415C110.449 32.1631 109.487 32.3738 108.354 32.3738H106.615V36.8198H102.229V22.8299H108.354C110.067 22.8299 111.377 23.2646 112.286 24.134C113.208 25.0035 113.67 26.1693 113.67 27.6315ZM107.86 28.9159C108.769 28.9159 109.224 28.4877 109.224 27.6315C109.224 26.7752 108.769 26.3471 107.86 26.3471H106.615V28.9159H107.86ZM119.448 33.5001H123.676V36.8198H115.061V22.8299H119.448V33.5001ZM134.027 34.7055H129.364L128.673 36.8198H124.069L129.186 22.8299H134.245L139.343 36.8198H134.719L134.027 34.7055ZM132.96 31.4056L131.696 27.5129L130.431 31.4056H132.96ZM151.326 22.8299V26.3076H147.611V36.8198H143.224V26.3076H139.549V22.8299H151.326ZM156.902 26.3274V28.0464H161.249V31.3463H156.902V33.3223H161.842V36.8198H152.516V22.8299H161.842V26.3274H156.902ZM173.375 22.8299V26.3076H167.882V28.244H171.834V31.5439H167.882V36.8198H163.495V22.8299H173.375ZM181.678 36.9581C180.361 36.9581 179.149 36.6485 178.042 36.0294C176.949 35.4102 176.08 34.554 175.434 33.4606C174.789 32.3672 174.466 31.1356 174.466 29.7655C174.466 28.3955 174.789 27.1638 175.434 26.0705C176.08 24.9771 176.949 24.1274 178.042 23.5215C179.149 22.9023 180.361 22.5928 181.678 22.5928C182.995 22.5928 184.201 22.9023 185.294 23.5215C186.388 24.1274 187.25 24.9771 187.883 26.0705C188.528 27.1638 188.851 28.3955 188.851 29.7655C188.851 31.1356 188.528 32.3672 187.883 33.4606C187.25 34.554 186.381 35.4102 185.274 36.0294C184.181 36.6485 182.982 36.9581 181.678 36.9581ZM181.678 32.8678C182.548 32.8678 183.219 32.5912 183.694 32.0379C184.168 31.4715 184.405 30.714 184.405 29.7655C184.405 28.8039 184.168 28.0464 183.694 27.4932C183.219 26.9267 182.548 26.6435 181.678 26.6435C180.796 26.6435 180.117 26.9267 179.643 27.4932C179.169 28.0464 178.932 28.8039 178.932 29.7655C178.932 30.714 179.169 31.4715 179.643 32.0379C180.117 32.5912 180.796 32.8678 181.678 32.8678ZM197.468 36.8198L194.84 31.8008H194.82V36.8198H190.433V22.8299H196.954C198.087 22.8299 199.055 23.0341 199.859 23.4424C200.662 23.8376 201.262 24.3843 201.657 25.0825C202.065 25.7675 202.269 26.5447 202.269 27.4141C202.269 28.3494 202.006 29.1793 201.479 29.9039C200.965 30.6284 200.221 31.1487 199.246 31.4649L202.289 36.8198H197.468ZM194.82 28.8764H196.559C196.98 28.8764 197.297 28.7841 197.507 28.5997C197.718 28.4021 197.824 28.0991 197.824 27.6908C197.824 27.3219 197.712 27.0321 197.488 26.8213C197.277 26.6106 196.967 26.5052 196.559 26.5052H194.82V28.8764ZM220.486 22.8299V36.8198H216.119V29.8446L213.966 36.8198H210.211L208.058 29.8446V36.8198H203.671V22.8299H209.046L212.128 31.2278L215.132 22.8299H220.486Z" fill="black"/>
<path d="M32.5212 45.0768L20.5145 38.5589V28.2673L13.6534 24.4938L32.5212 14.2023L51.389 24.4938V38.2158H47.9585V26.3806L44.528 28.2673V38.5589L32.5212 45.0768ZM32.5212 30.8402L44.2707 24.4938L32.5212 18.1474L20.7717 24.4938L32.5212 30.8402ZM32.5212 41.1746L41.0975 36.5434V30.0684L32.5212 34.7853L23.945 30.0684V36.5434L32.5212 41.1746Z" fill="#F5F5DC"/>
</svg>
